<?xml version="1.0" encoding="utf-8"?>
<!-- Generator: Adobe Illustrator 20.0.0, SVG Export Plug-In . SVG Version: 6.00 Build 0)  -->
<svg version="1.1" id="Layer_1" xmlns="http://www.w3.org/2000/svg" xmlns:xlink="http://www.w3.org/1999/xlink" x="0px" y="0px"
	 viewBox="0 0 360 360" style="enable-background:new 0 0 360 360;" xml:space="preserve">
<style type="text/css">
	.st0{fill-rule:evenodd;clip-rule:evenodd;fill:#454545;}
</style>
<path class="st0" d="M112.3,197.2c5.6-3.5,10.5-6.8,14.7-10c-0.8-3.3-1.1-6.6-0.9-10.2c0.6-11.9,7-22.2,16.4-28.3
	c-4-4.8-10.7-9.3-20.1-13.6c-116-52.4,42.4-129.4,49-8.4c0.2,6.7,0.7,12.6,1.4,18c14.1,4.5,24.3,17.4,24.9,32.5
	c6.3-0.9,13.8-4.4,22.5-10.7C323.6,92.4,311,268,202.9,213.1c-6.1-3.2-11.7-5.9-16.8-8c-6.8,6.3-16,9.9-26,9.3
	c-5.1-0.3-9.9-1.5-14.1-3.7c-2.4,5.9-3,14.1-2,24.6C156.6,362.2,10.7,263.5,112.3,197.2z M176,179.5c0.4-7.8-5.6-14.5-13.5-14.9
	s-14.5,5.6-14.9,13.5c-0.4,7.8,5.7,14.5,13.5,14.9C169,193.4,175.7,187.4,176,179.5z"/>
</svg>
