<?xml version="1.0" encoding="utf-8"?><!DOCTYPE svg PUBLIC "-//W3C//DTD SVG 1.1//EN" "http://www.w3.org/Graphics/SVG/1.1/DTD/svg11.dtd"><svg width="2443" height="2687" viewBox="0 0 2443 2687" xmlns="http://www.w3.org/2000/svg" xmlns:xlink="http://www.w3.org/1999/xlink"><svg width="36" height="38" viewBox="-5 -5 36 38" id="arrow-down"><path d="M25.172 13q0 .828-.578 1.406L14.422 24.593q-.609.578-1.422.578-.828 0-1.406-.578L1.422 14.406Q.828 13.844.828 13q0-.828.594-1.422l1.156-1.172Q3.187 9.828 4 9.828q.828 0 1.406.578L10 15V4q0-.812.594-1.406T12 2h2q.812 0 1.406.594T16 4v11l4.594-4.594q.578-.578 1.406-.578.812 0 1.422.578l1.172 1.172q.578.609.578 1.422z"/></svg><svg width="35" height="38" viewBox="-5 -5 35 38" id="arrow-left" x="36" y="38"><path d="M24 14v2q0 .828-.508 1.414t-1.32.586h-11l4.578 4.594q.594.562.594 1.406t-.594 1.406l-1.172 1.188q-.578.578-1.406.578-.812 0-1.422-.578L1.578 16.407Q1 15.829 1 15.001q0-.812.578-1.422L11.75 3.423q.594-.594 1.422-.594.812 0 1.406.594l1.172 1.156q.594.594.594 1.422t-.594 1.422l-4.578 4.578h11q.812 0 1.32.586T24 14.001z"/></svg><svg width="33" height="38" viewBox="-5 -5 33 38" id="arrow-right" x="71" y="76"><path d="M23 15q0 .844-.578 1.422L12.25 26.594q-.609.578-1.422.578-.797 0-1.406-.578L8.25 25.422q-.594-.594-.594-1.422t.594-1.422L12.828 18h-11q-.812 0-1.32-.586T0 16v-2q0-.828.508-1.414T1.828 12h11L8.25 7.406Q7.656 6.844 7.656 6t.594-1.406l1.172-1.172q.594-.594 1.406-.594.828 0 1.422.594l10.172 10.172Q23 14.141 23 15z"/></svg><svg width="36" height="38" viewBox="-5 -5 36 38" id="arrow-up" x="104" y="114"><path d="M25.172 15.172q0 .797-.578 1.406l-1.172 1.172q-.594.594-1.422.594-.844 0-1.406-.594L16 13.172v11q0 .812-.586 1.32T14 26h-2q-.828 0-1.414-.508T10 24.172v-11L5.406 17.75q-.562.594-1.406.594t-1.406-.594l-1.172-1.172q-.594-.594-.594-1.406 0-.828.594-1.422L11.594 3.578Q12.141 3 13 3q.844 0 1.422.578L24.594 13.75q.578.609.578 1.422z"/></svg><svg width="34" height="38" viewBox="-5 -5 34 38" id="bars" x="140" y="152"><path d="M24 21v2q0 .406-.297.703T23 24H1q-.406 0-.703-.297T0 23v-2q0-.406.297-.703T1 20h22q.406 0 .703.297T24 21zm0-8v2q0 .406-.297.703T23 16H1q-.406 0-.703-.297T0 15v-2q0-.406.297-.703T1 12h22q.406 0 .703.297T24 13zm0-8v2q0 .406-.297.703T23 8H1q-.406 0-.703-.297T0 7V5q0-.406.297-.703T1 4h22q.406 0 .703.297T24 5z"/></svg><svg width="36" height="38" viewBox="-5 -5 36 38" id="calculator" x="174" y="190"><path d="M6 24q0-.828-.586-1.414T4 22t-1.414.586T2 24t.586 1.414T4 26t1.414-.586T6 24zm6 0q0-.828-.586-1.414T10 22t-1.414.586T8 24t.586 1.414T10 26t1.414-.586T12 24zm-6-6q0-.828-.586-1.414T4 16t-1.414.586T2 18t.586 1.414T4 20t1.414-.586T6 18zm12 6q0-.828-.586-1.414T16 22t-1.414.586T14 24t.586 1.414T16 26t1.414-.586T18 24zm-6-6q0-.828-.586-1.414T10 16t-1.414.586T8 18t.586 1.414T10 20t1.414-.586T12 18zm-6-6q0-.828-.586-1.414T4 10t-1.414.586T2 12t.586 1.414T4 14t1.414-.586T6 12zm12 6q0-.828-.586-1.414T16 16t-1.414.586T14 18t.586 1.414T16 20t1.414-.586T18 18zm-6-6q0-.828-.586-1.414T10 10t-1.414.586T8 12t.586 1.414T10 14t1.414-.586T12 12zm12 12v-6q0-.812-.594-1.406T22 16t-1.406.594T20 18v6q0 .812.594 1.406T22 26t1.406-.594T24 24zm-6-12q0-.828-.586-1.414T16 10t-1.414.586T14 12t.586 1.414T16 14t1.414-.586T18 12zm6-5V3q0-.406-.297-.703T23 2H3q-.406 0-.703.297T2 3v4q0 .406.297.703T3 8h20q.406 0 .703-.297T24 7zm0 5q0-.828-.586-1.414T22 10t-1.414.586T20 12t.586 1.414T22 14t1.414-.586T24 12zm2-10v24q0 .812-.594 1.406T24 28H2q-.812 0-1.406-.594T0 26V2Q0 1.188.594.594T2 0h22q.812 0 1.406.594T26 2z"/></svg><svg width="26" height="38" viewBox="-5 -5 26 38" id="caret-down" x="210" y="228"><path d="M16 11q0 .406-.297.703l-7 7Q8.406 19 8 19t-.703-.297l-7-7Q0 11.406 0 11t.297-.703T1 10h14q.406 0 .703.297T16 11z"/></svg><svg width="34" height="38" viewBox="-5 -5 34 38" id="caret-square-o-down" x="236" y="266"><path d="M17.891 10.547q.281.547-.078 1.031l-5 7q-.297.422-.812.422t-.812-.422l-5-7q-.359-.484-.078-1.031.266-.547.891-.547h10q.625 0 .891.547zM20 21.5v-15q0-.203-.148-.352T19.5 6h-15q-.203 0-.352.148T4 6.5v15q0 .203.148.352T4.5 22h15q.203 0 .352-.148T20 21.5zm4-15v15q0 1.859-1.32 3.18T19.5 26h-15q-1.859 0-3.18-1.32T0 21.5v-15q0-1.859 1.32-3.18T4.5 2h15q1.859 0 3.18 1.32T24 6.5z"/></svg><svg width="34" height="38" viewBox="-5 -5 34 38" id="caret-square-o-left" x="270" y="304"><path d="M16 9v10q0 .406-.297.703T15 20q-.313 0-.578-.187l-7-5Q7 14.516 7 14.001t.422-.812l7-5q.266-.187.578-.187.406 0 .703.297t.297.703zm4 12.5v-15q0-.203-.148-.352T19.5 6h-15q-.203 0-.352.148T4 6.5v15q0 .203.148.352T4.5 22h15q.203 0 .352-.148T20 21.5zm4-15v15q0 1.859-1.32 3.18T19.5 26h-15q-1.859 0-3.18-1.32T0 21.5v-15q0-1.859 1.32-3.18T4.5 2h15q1.859 0 3.18 1.32T24 6.5z"/></svg><svg width="34" height="38" viewBox="-5 -5 34 38" id="caret-square-o-right" x="304" y="342"><path d="M17 14q0 .516-.422.812l-7 5q-.484.359-1.031.078Q8 19.624 8 18.999v-10q0-.625.547-.891.547-.281 1.031.078l7 5q.422.297.422.812zm3 7.5v-15q0-.219-.141-.359T19.5 6h-15q-.219 0-.359.141T4 6.5v15q0 .219.141.359T4.5 22h15q.219 0 .359-.141T20 21.5zm4-15v15q0 1.859-1.32 3.18T19.5 26h-15q-1.859 0-3.18-1.32T0 21.5v-15q0-1.859 1.32-3.18T4.5 2h15q1.859 0 3.18 1.32T24 6.5z"/></svg><svg width="34" height="38" viewBox="-5 -5 34 38" id="caret-square-o-up" x="338" y="380"><path d="M17.891 17.453Q17.625 18 17 18H7q-.625 0-.891-.547-.281-.547.078-1.031l5-7Q11.484 9 11.999 9t.812.422l5 7q.359.484.078 1.031zM20 21.5v-15q0-.203-.148-.352T19.5 6h-15q-.203 0-.352.148T4 6.5v15q0 .203.148.352T4.5 22h15q.203 0 .352-.148T20 21.5zm4-15v15q0 1.859-1.32 3.18T19.5 26h-15q-1.859 0-3.18-1.32T0 21.5v-15q0-1.859 1.32-3.18T4.5 2h15q1.859 0 3.18 1.32T24 6.5z"/></svg><svg width="26" height="38" viewBox="-5 -5 26 38" id="caret-up" x="372" y="418"><path d="M16 19q0 .406-.297.703T15 20H1q-.406 0-.703-.297T0 19t.297-.703l7-7Q7.594 11 8 11t.703.297l7 7Q16 18.594 16 19z"/></svg><svg width="36" height="38" viewBox="-5 -5 36 38" id="cart-plus" x="398" y="456"><path d="M19 11q0-.406-.297-.703T18 10h-2V8q0-.406-.297-.703T15 7t-.703.297T14 8v2h-2q-.406 0-.703.297T11 11t.297.703T12 12h2v2q0 .406.297.703T15 15t.703-.297T16 14v-2h2q.406 0 .703-.297T19 11zm-9 13q0 .828-.586 1.414T8 26t-1.414-.586T6 24t.586-1.414T8 22t1.414.586T10 24zm14 0q0 .828-.586 1.414T22 26t-1.414-.586T20 24t.586-1.414T22 22t1.414.586T24 24zm2-17v8q0 .375-.25.664t-.641.336L8.797 17.906q.016.109.07.336t.094.414T9 19q0 .25-.375 1H23q.406 0 .703.297T24 21t-.297.703T23 22H7q-.406 0-.703-.297T6 21q0-.219.172-.617t.461-.93.32-.594L4.187 6H1q-.406 0-.703-.297T0 5t.297-.703T1 4h4q.25 0 .445.102t.313.242.203.383.117.414.086.461.07.398H25q.406 0 .703.297T26 7z"/></svg><svg width="42" height="34.89" viewBox="-5.62 -5.62 47.25 39.25" id="cc-amex" x="434" y="494"><path d="M1.859 10.656H3.25l-.703-1.687zm9.703 8.219l1.156-1.234-1.094-1.234H9.077v.766h2.219v.859H9.077v.844h2.484zm2.469-1.219l1.547 1.719v-3.391zm4.5-.734q0-.516-.625-.516h-1.313v1.078h1.297q.641 0 .641-.562zm4.516-.063q0-.453-.656-.453H21.11v.953h1.266q.672 0 .672-.5zm-4.344-7.281q0-.453-.656-.453h-1.281v.938h1.266q.672 0 .672-.484zm7.172 1.078h1.391l-.688-1.687zM10.922 8.234v4.234H9.891V9.155l-1.469 3.313h-.891L6.062 9.155v3.313H3.999l-.391-.938H1.499l-.391.938H.014l1.813-4.234h1.5l1.719 4.016V8.234h1.656l1.328 2.875 1.203-2.875h1.687zm8.687 8.688q0 .313-.086.547t-.219.391-.352.258-.406.156-.492.07-.492.016-.508-.008-.461-.008v1.422h-1.969l-1.25-1.406-1.297 1.406h-4v-4.234h4.062l1.25 1.391 1.281-1.391h3.234q1.703 0 1.703 1.391zm-4.547-5.328v.875h-3.391V8.235h3.391v.891h-2.375v.766h2.312v.859h-2.312v.844h2.375zM36 20.328v3.578q0 .859-.602 1.477T33.937 26H2.062q-.859 0-1.461-.617t-.602-1.477V13.312h1.734l.391-.953h.859l.391.953H6.78v-.719l.297.719h1.766l.313-.734v.734h8.453v-1.547l.156-.016q.156 0 .156.219v1.344h4.359v-.359q.359.187.859.281t.82.102.984-.008.805-.016l.391-.953h.875l.391.953h3.547v-.906l.531.906h2.844V7.406h-2.812v.688l-.391-.688h-2.891v.688l-.359-.688h-3.891q-1.078 0-1.703.344v-.344h-2.688v.344q-.375-.344-1.141-.344H8.639l-.672 1.516-.672-1.516H4.201v.688l-.344-.688H1.216l-1.219 2.797V4.094q0-.859.602-1.477T2.06 2h31.875q.859 0 1.461.617t.602 1.477v10.594h-1.875q-.797 0-1.266.344v-.344h-2.766q-.859 0-1.219.344v-.344h-4.937v.344q-.484-.344-1.359-.344H19.31v.344q-.359-.344-1.422-.344h-3.656l-.844.906-.781-.906H7.154v5.906h5.359l.859-.922.812.922h3.297v-1.391h.328q.922 0 1.406-.203v1.594h2.719v-1.547h.125q.125 0 .156.031t.031.156v1.359h8.266q.891 0 1.375-.375v.375h2.625q.938 0 1.484-.266zm-11.844-3.656q0 .359-.187.672t-.531.453q.391.141.531.406t.141.719v.844h-1.016v-.703q0-.516-.187-.68t-.719-.164H21.11v1.547h-1.016v-4.234H22.5q.75 0 1.203.234t.453.906zm-4.328-7.297q0 .375-.195.688t-.523.453q.406.141.539.398t.133.727v.828h-1.016q0-.141.008-.414t0-.391-.047-.289-.133-.25-.273-.133-.461-.055h-1.094v1.531h-1V8.234l2.391.016q.766 0 1.219.227t.453.898zm8.266 9.516v.875h-3.375v-4.234h3.375v.875h-2.359v.766h2.312v.859h-2.312v.844zM21.438 8.234v4.234h-1.031V8.234h1.031zm10.828 10.188q0 1.344-1.594 1.344h-1.969v-.906h1.969q.531 0 .531-.391 0-.25-.266-.328t-.648-.078-.773-.055-.656-.352-.266-.859q0-.609.406-.938t1.031-.328h2.031v.891h-1.859q-.562 0-.562.391 0 .25.273.32t.656.063.766.039.656.336.273.852zM36 17.641v1.578q-.375.547-1.375.547h-1.953v-.906h1.953q.516 0 .516-.391 0-.203-.195-.297t-.484-.086-.625-.031-.625-.125-.484-.375-.195-.758q0-.609.414-.938t1.039-.328h2.016v.891h-1.844q-.562 0-.562.391 0 .313.453.344t1.07.078.883.406zM33.422 8.25v4.219h-1.437l-1.906-3.172v3.172h-2.063l-.406-.938h-2.094l-.391.938h-1.172q-2.016 0-2.016-2.078 0-2.156 2.078-2.156h.984v.922q-.109 0-.438-.016t-.445-.008-.359.031-.336.102-.227.211-.18.359-.047.523q0 .594.211.906t.773.313h.453l1.437-3.328h1.516l1.703 4v-4h1.547l1.781 2.938V8.25h1.031z"/></svg><svg width="42" height="34.89" viewBox="-5.62 -5.62 47.25 39.25" id="cc-discover" x="476" y="529"><path d="M4.891 12.141q0 .797-.562 1.313-.453.406-1.391.406h-.266v-3.437h.266q.953 0 1.391.422.562.484.562 1.297zm27.75-1.016q0 .812-1 .812h-.297v-1.578h.313q.984 0 .984.766zM5.938 12.141q0-1.156-.781-1.883t-2.016-.727H1.657v5.203h1.484q1.156 0 1.859-.594.938-.797.938-2zm.468 2.593h1.016V9.531H6.406v5.203zm5-1.578q0-.625-.32-.969t-1.18-.656q-.453-.156-.617-.297t-.164-.359q0-.25.211-.414t.539-.164q.453 0 .828.422l.531-.688q-.641-.578-1.531-.578-.688 0-1.156.43t-.469 1.055q0 .547.281.867t1 .57q.578.203.703.297.297.187.297.531 0 .313-.219.523t-.562.211q-.75 0-1.109-.688l-.656.625q.688 1 1.797 1 .797 0 1.297-.477t.5-1.242zm4.344 1.406v-1.203q-.578.578-1.219.578-.766 0-1.258-.508t-.492-1.289q0-.75.492-1.273t1.211-.523q.672 0 1.266.594V9.735q-.625-.313-1.25-.313-1.156 0-1.961.789t-.805 1.93.797 1.93 1.953.789q.656 0 1.266-.297zM35 24v-8.234q-1.016.625-2.258 1.313t-3.711 1.828-5.148 2.148-6.523 2.102-7.875 1.844h24.516q.406 0 .703-.297t.297-.703zM21.703 12.172q0-1.172-.828-2t-2-.828-2 .828-.828 2 .828 2 2 .828 2-.828.828-2zm2.375 2.703l2.25-5.344h-1.109l-1.406 3.5-1.391-3.5h-1.109l2.219 5.344h.547zm2.703-.141h2.875v-.875h-1.859v-1.406h1.797v-.875h-1.797v-1.156h1.859v-.891h-2.875v5.203zm6.11 0h1.25L32.5 12.546q1.188-.25 1.188-1.469 0-.734-.484-1.141t-1.359-.406h-1.516v5.203h1.016v-2.078h.141zM36 4.094v19.812q0 .875-.602 1.484t-1.461.609H2.062q-.859 0-1.461-.609t-.602-1.484V4.094q0-.875.602-1.484t1.461-.609h31.875q.859 0 1.461.609T36 4.094z"/></svg><svg width="42" height="34.89" viewBox="-5.62 -5.62 47.25 39.25" id="cc-mastercard" x="518" y="564"><path d="M10.484 14.578h-.203q-.734 0-.734.5 0 .344.313.344.266 0 .438-.234t.187-.609zm6.172-.562h.969v-.047q.016-.063.008-.102t-.016-.109-.031-.125-.07-.102-.117-.078-.18-.031q-.438 0-.562.594zm8.438.562h-.187q-.75 0-.75.5 0 .344.313.344.266 0 .438-.234t.187-.609zm4.984-.406q0-.641-.469-.641-.297 0-.484.313t-.187.797q0 .656.438.656.313 0 .508-.313t.195-.812zM7.5 11.969h1.359l-.688 4.094h-.875l.5-3.141-1.109 3.141h-.609l-.063-3.125-.531 3.125h-.828l.688-4.094H6.61l.031 2.547zm3.953 1.672q0 .094-.063.656-.25 1.578-.266 1.766h-.734l.016-.344q-.313.406-.906.406-.359 0-.586-.25t-.227-.656q0-.609.406-.945t1.141-.336q.219 0 .359.016 0-.047.008-.086t.016-.07.008-.047q0-.313-.562-.313-.453 0-.922.156 0-.063.109-.75.594-.172 1.047-.172 1.156 0 1.156.969zm2.438-.907l-.125.766q-.344-.047-.641-.047-.422 0-.422.266 0 .125.07.187t.336.172q.625.297.625.938 0 1.125-1.359 1.109-.531 0-.906-.094 0-.031.109-.766.453.125.797.125.5 0 .5-.297 0-.109-.07-.18t-.336-.195q-.672-.313-.672-.922 0-1.125 1.313-1.125.469 0 .781.063zm1.375 0h.438l-.109.812h-.453q-.031.266-.102.633t-.109.602-.039.281q0 .25.297.25.125 0 .25-.031l-.125.734q-.328.109-.625.109-.672 0-.703-.734 0-.187.125-.875.047-.313.391-2.281h.859zm3.172 1.141q0 .359-.109.812h-1.734q-.047.344.156.516t.594.172q.469 0 .906-.219L18.11 16q-.469.125-.891.125-1.484 0-1.484-1.484 0-.859.43-1.414t1.086-.555q.547 0 .867.328t.32.875zm2.171-1.156q-.203.359-.344.969-.344-.031-.484.375t-.391 2h-.875l.047-.219q.344-2.031.453-3.109h.797l-.047.516q.219-.328.398-.461t.445-.07zm2.922-.641l-.141.891q-.438-.219-.781-.219-.484 0-.797.43t-.313 1.102q0 .469.211.734t.602.266q.328 0 .75-.203l-.156.922q-.438.125-.781.125-.703 0-1.117-.477t-.414-1.289q0-1.094.555-1.789t1.43-.695q.406 0 .953.203zm2.532 1.563q0 .281-.063.656-.203 1.234-.266 1.766h-.719l.016-.344q-.313.406-.922.406-.359 0-.578-.25t-.219-.656q0-.609.398-.945t1.133-.336q.234 0 .359.016.031-.109.031-.203 0-.313-.562-.313-.453 0-.922.156 0-.063.125-.75.594-.172 1.047-.172 1.141 0 1.141.969zm2.203-.922q-.219.375-.328.969-.359-.031-.492.359t-.398 2.016h-.875l.047-.219q.297-1.625.453-3.109h.812q0 .172-.063.516.234-.328.414-.461t.43-.07zm2.203-.75h.875l-.672 4.094h-.828l.047-.297q-.359.359-.812.359-.484 0-.773-.375t-.289-1q0-.828.43-1.437t1.008-.609q.484 0 .828.453zM32.203 14q0-2.312-1.133-4.266T27.976 6.64t-4.273-1.141q-2.828 0-5.125 1.719 1.984 1.813 2.672 4.438h-.781Q19.781 9.312 18 7.703q-1.781 1.609-2.469 3.953h-.781q.688-2.625 2.672-4.438-2.297-1.719-5.125-1.719-2.312 0-4.273 1.141T4.93 9.734 3.797 14t1.133 4.266 3.094 3.094 4.273 1.141q2.828 0 5.125-1.719-1.875-1.734-2.578-4.125h.781q.719 2.156 2.375 3.641 1.656-1.484 2.375-3.641h.781q-.703 2.391-2.578 4.125 2.297 1.719 5.125 1.719 2.312 0 4.273-1.141t3.094-3.094T32.203 14zM36 4v20q0 .812-.594 1.406T34 26H2q-.812 0-1.406-.594T0 24V4q0-.812.594-1.406T2 2h32q.812 0 1.406.594T36 4z"/></svg><svg width="42" height="34.89" viewBox="-5.62 -5.62 47.25 39.25" id="cc-visa" x="560" y="599"><path d="M30.859 15.469h-2.156q.219-.578 1.031-2.797l.047-.141q.063-.156.156-.406t.141-.406l.187.859zM8.297 14.453l-.906-4.609Q7.219 9 6.219 9H2.031L2 9.203q4.859 1.234 6.297 5.25zM11.094 9l-2.531 6.844-.266-1.391q-.406-1.094-1.328-2.023t-2.047-1.383l2.109 7.969h2.734L13.843 9h-2.75zm2.172 10.031h2.594L17.485 9h-2.594zm12-9.781q-1.078-.422-2.328-.422-1.922 0-3.141.922t-1.234 2.391q-.016 1.594 2.266 2.719.75.359 1.047.641t.297.609q0 .469-.469.719t-1.078.25q-1.344 0-2.438-.516l-.344-.172-.359 2.25q1.156.531 2.891.531 2.031.016 3.258-.922t1.258-2.5q0-1.656-2.188-2.719-.766-.391-1.109-.656t-.344-.594q0-.344.383-.602t1.102-.258q1.094-.016 1.937.375l.234.125zm6.64-.25h-2q-1.016 0-1.359.844l-3.844 9.188h2.719l.547-1.5h3.313q.078.344.313 1.5h2.406zM36 4v20q0 .812-.594 1.406T34 26H2q-.812 0-1.406-.594T0 24V4q0-.812.594-1.406T2 2h32q.812 0 1.406.594T36 4z"/></svg><svg width="34" height="38" viewBox="-5 -5 34 38" id="check-circle-o" x="602" y="634"><path d="M18.297 12.703l-6.594 6.594q-.297.297-.703.297t-.703-.297l-4.594-4.594q-.297-.297-.297-.703t.297-.703l1.594-1.594q.297-.297.703-.297t.703.297L11 14l4.297-4.297q.297-.297.703-.297t.703.297l1.594 1.594q.297.297.297.703t-.297.703zM20.5 14q0-2.312-1.141-4.266T16.265 6.64t-4.266-1.141T7.733 6.64 4.639 9.734 3.498 14t1.141 4.266 3.094 3.094 4.266 1.141 4.266-1.141 3.094-3.094T20.5 14zm3.5 0q0 3.266-1.609 6.023t-4.367 4.367-6.023 1.609-6.023-1.609-4.367-4.367T.002 14t1.609-6.023T5.978 3.61t6.023-1.609 6.023 1.609 4.367 4.367T24 14z"/></svg><svg width="36" height="38" viewBox="-5 -5 36 38" id="check-square-o" x="636" y="672"><path d="M22 14.531V19.5q0 1.859-1.32 3.18T17.5 24h-13q-1.859 0-3.18-1.32T0 19.5v-13q0-1.859 1.32-3.18T4.5 2h13q.984 0 1.828.391.234.109.281.359.047.266-.141.453l-.766.766q-.156.156-.359.156-.047 0-.141-.031Q17.843 4 17.499 4h-13q-1.031 0-1.766.734T1.999 6.5v13q0 1.031.734 1.766T4.499 22h13q1.031 0 1.766-.734t.734-1.766v-3.969q0-.203.141-.344l1-1q.156-.156.359-.156.094 0 .187.047.313.125.313.453zm3.609-7.64L12.89 19.61q-.375.375-.891.375t-.891-.375l-6.719-6.719q-.375-.375-.375-.891t.375-.891L6.108 9.39q.375-.375.891-.375t.891.375l4.109 4.109L22.108 3.39q.375-.375.891-.375t.891.375l1.719 1.719q.375.375.375.891t-.375.891z"/></svg><svg width="38" height="38" viewBox="-5 -5 38 38" id="chevron-down" x="672" y="710"><path d="M26.297 12.625L14.703 24.203q-.297.297-.703.297t-.703-.297L1.703 12.625q-.297-.297-.297-.711t.297-.711l2.594-2.578q.297-.297.703-.297t.703.297L14 16.922l8.297-8.297q.297-.297.703-.297t.703.297l2.594 2.578q.297.297.297.711t-.297.711z"/></svg><svg width="31" height="38" viewBox="-5 -5 31 38" id="chevron-left" x="710" y="748"><path d="M18.297 4.703L10 13l8.297 8.297q.297.297.297.703t-.297.703l-2.594 2.594q-.297.297-.703.297t-.703-.297L2.703 13.703q-.297-.297-.297-.703t.297-.703L14.297.703q.297-.297.703-.297t.703.297l2.594 2.594q.297.297.297.703t-.297.703z"/></svg><svg width="29" height="38" viewBox="-5 -5 29 38" id="chevron-right" x="741" y="786"><path d="M17.297 13.703L5.703 25.297q-.297.297-.703.297t-.703-.297l-2.594-2.594q-.297-.297-.297-.703t.297-.703L10 13 1.703 4.703Q1.406 4.406 1.406 4t.297-.703L4.297.703Q4.594.406 5 .406t.703.297l11.594 11.594q.297.297.297.703t-.297.703z"/></svg><svg width="38" height="38" viewBox="-5 -5 38 38" id="chevron-up" x="770" y="824"><path d="M26.297 20.797l-2.594 2.578q-.297.297-.703.297t-.703-.297L14 15.078l-8.297 8.297q-.297.297-.703.297t-.703-.297l-2.594-2.578q-.297-.297-.297-.711t.297-.711L13.297 7.797Q13.594 7.5 14 7.5t.703.297l11.594 11.578q.297.297.297.711t-.297.711z"/></svg><svg width="34" height="38" viewBox="-5 -5 34 38" id="circle" x="808" y="862"><path d="M24 14q0 3.266-1.609 6.023t-4.367 4.367-6.023 1.609-6.023-1.609-4.367-4.367T.002 14t1.609-6.023T5.978 3.61t6.023-1.609 6.023 1.609 4.367 4.367T24 14z"/></svg><svg width="34" height="38" viewBox="-5 -5 34 38" id="circle-o" x="842" y="900"><path d="M12 5.5q-2.312 0-4.266 1.141T4.64 9.735t-1.141 4.266 1.141 4.266 3.094 3.094T12 22.502t4.266-1.141 3.094-3.094 1.141-4.266-1.141-4.266-3.094-3.094T12 5.5zM24 14q0 3.266-1.609 6.023t-4.367 4.367-6.023 1.609-6.023-1.609-4.367-4.367T.002 14t1.609-6.023T5.978 3.61t6.023-1.609 6.023 1.609 4.367 4.367T24 14z"/></svg><svg width="34" height="38" viewBox="-5 -5 34 38" id="circle-thin" x="876" y="938"><path d="M12 4q-2.031 0-3.883.797T4.93 6.93t-2.133 3.187T2 14t.797 3.883T4.93 21.07t3.187 2.133T12 24t3.883-.797 3.187-2.133 2.133-3.187T22 14t-.797-3.883T19.07 6.93t-3.187-2.133T12 4zm12 10q0 3.266-1.609 6.023t-4.367 4.367-6.023 1.609-6.023-1.609-4.367-4.367T.002 14t1.609-6.023T5.978 3.61t6.023-1.609 6.023 1.609 4.367 4.367T24 14z"/></svg><svg width="34" height="38" viewBox="-5 -5 34 38" id="clock-o" x="910" y="976"><path d="M14 8.5v7q0 .219-.141.359T13.5 16h-5q-.219 0-.359-.141T8 15.5v-1q0-.219.141-.359T8.5 14H12V8.5q0-.219.141-.359T12.5 8h1q.219 0 .359.141T14 8.5zm6.5 5.5q0-2.312-1.141-4.266T16.265 6.64t-4.266-1.141T7.733 6.64 4.639 9.734 3.498 14t1.141 4.266 3.094 3.094 4.266 1.141 4.266-1.141 3.094-3.094T20.5 14zm3.5 0q0 3.266-1.609 6.023t-4.367 4.367-6.023 1.609-6.023-1.609-4.367-4.367T.002 14t1.609-6.023T5.978 3.61t6.023-1.609 6.023 1.609 4.367 4.367T24 14z"/></svg><svg width="32" height="38" viewBox="-5 -5 32 38" id="close" x="944" y="1014"><path d="M20.281 20.656q0 .625-.438 1.062l-2.125 2.125q-.438.438-1.062.438t-1.062-.438L11 19.249l-4.594 4.594q-.438.438-1.062.438t-1.062-.438l-2.125-2.125q-.438-.438-.438-1.062t.438-1.062L6.751 15l-4.594-4.594q-.438-.438-.438-1.062t.438-1.062l2.125-2.125q.438-.438 1.062-.438t1.062.438L11 10.751l4.594-4.594q.438-.438 1.062-.438t1.062.438l2.125 2.125q.438.438.438 1.062t-.438 1.062L15.249 15l4.594 4.594q.438.438.438 1.062z"/></svg><svg width="32" height="38" viewBox="-5 -5 32 38" id="cutlery" x="976" y="1052"><path d="M10 1v10q0 .953-.555 1.734T8 13.828V26q0 .812-.594 1.406T6 28H4q-.812 0-1.406-.594T2 26V13.828q-.891-.313-1.445-1.094T0 11V1Q0 .594.297.297T1 0t.703.297T2 1v6.5q0 .406.297.703T3 8.5t.703-.297T4 7.5V1q0-.406.297-.703T5 0t.703.297T6 1v6.5q0 .406.297.703T7 8.5t.703-.297T8 7.5V1q0-.406.297-.703T9 0t.703.297T10 1zm12 0v25q0 .812-.594 1.406T20 28h-2q-.812 0-1.406-.594T16 26v-8h-3.5q-.203 0-.352-.148T12 17.5V5q0-2.063 1.469-3.531T17 0h4q.406 0 .703.297T22 1z"/></svg><svg width="32" height="38" viewBox="-5 -5 32 38" id="ellipsis-h" x="1008" y="1090"><path d="M6 11.5v3q0 .625-.438 1.062T4.5 16h-3q-.625 0-1.062-.438T0 14.5v-3q0-.625.438-1.062T1.5 10h3q.625 0 1.062.438T6 11.5zm8 0v3q0 .625-.438 1.062T12.5 16h-3q-.625 0-1.062-.438T8 14.5v-3q0-.625.438-1.062T9.5 10h3q.625 0 1.062.438T14 11.5zm8 0v3q0 .625-.438 1.062T20.5 16h-3q-.625 0-1.062-.438T16 14.5v-3q0-.625.438-1.062T17.5 10h3q.625 0 1.062.438T22 11.5z"/></svg><svg width="16" height="38" viewBox="-5 -5 16 38" id="ellipsis-v" x="1040" y="1128"><path d="M6 19.5v3q0 .625-.438 1.062T4.5 24h-3q-.625 0-1.062-.438T0 22.5v-3q0-.625.438-1.062T1.5 18h3q.625 0 1.062.438T6 19.5zm0-8v3q0 .625-.438 1.062T4.5 16h-3q-.625 0-1.062-.438T0 14.5v-3q0-.625.438-1.062T1.5 10h3q.625 0 1.062.438T6 11.5zm0-8v3q0 .625-.438 1.062T4.5 8h-3Q.875 8 .438 7.562T0 6.5v-3q0-.625.438-1.062T1.5 2h3q.625 0 1.062.438T6 3.5z"/></svg><svg width="38" height="38" viewBox="-5 -5 38 38" id="envelope" x="1056" y="1166"><path d="M28 11.094V23.5q0 1.031-.734 1.766T25.5 26h-23q-1.031 0-1.766-.734T0 23.5V11.094q.688.766 1.578 1.359 5.656 3.844 7.766 5.391.891.656 1.445 1.023t1.477.75 1.719.383h.031q.797 0 1.719-.383t1.477-.75 1.445-1.023q2.656-1.922 7.781-5.391.891-.609 1.563-1.359zM28 6.5q0 1.234-.766 2.359t-1.906 1.922q-5.875 4.078-7.313 5.078-.156.109-.664.477t-.844.594-.812.508-.898.422-.781.141h-.031q-.359 0-.781-.141t-.898-.422-.812-.508-.844-.594-.664-.477q-1.422-1-4.094-2.852T2.689 10.78Q1.72 10.124.861 8.975T.002 6.842q0-1.219.648-2.031t1.852-.812h23q1.016 0 1.758.734t.742 1.766z"/></svg><svg width="38" height="38" viewBox="-5 -5 38 38" id="envelope-o" x="1094" y="1204"><path d="M26 23.5v-12q-.5.562-1.078 1.031-4.188 3.219-6.656 5.281-.797.672-1.297 1.047t-1.352.758-1.602.383h-.031q-.75 0-1.602-.383t-1.352-.758-1.297-1.047q-2.469-2.063-6.656-5.281-.578-.469-1.078-1.031v12q0 .203.148.352t.352.148h23q.203 0 .352-.148t.148-.352zm0-16.422v-.383l-.008-.203-.047-.195-.086-.141-.141-.117L25.499 6h-23q-.203 0-.352.148t-.148.352q0 2.625 2.297 4.438 3.016 2.375 6.266 4.953l.547.461q.453.383.719.586t.695.492.789.43.672.141h.031q.313 0 .672-.141t.789-.43.695-.492.719-.586.547-.461q3.25-2.578 6.266-4.953.844-.672 1.57-1.805T26 7.078zm2-.578v17q0 1.031-.734 1.766T25.5 26h-23q-1.031 0-1.766-.734T0 23.5v-17q0-1.031.734-1.766T2.5 4h23q1.031 0 1.766.734T28 6.5z"/></svg><svg width="26" height="38" viewBox="-5 -5 26 38" id="facebook" x="1132" y="1242"><path d="M14.984.187v4.125h-2.453q-1.344 0-1.813.562t-.469 1.687v2.953h4.578l-.609 4.625h-3.969v11.859H5.468V14.139H1.484V9.514h3.984V6.108q0-2.906 1.625-4.508t4.328-1.602q2.297 0 3.563.187z"/></svg><svg width="34" height="38" viewBox="-5 -5 34 38" id="floppy-o" x="1158" y="1280"><path d="M6 24h12v-6H6v6zm14 0h2V10q0-.219-.156-.602t-.313-.539L17.14 4.468q-.156-.156-.531-.313T16 3.999v6.5q0 .625-.438 1.062t-1.062.438h-9q-.625 0-1.062-.438T4 10.499v-6.5H2v20h2v-6.5q0-.625.438-1.062t1.062-.438h13q.625 0 1.062.438T20 17.499v6.5zM14 9.5v-5q0-.203-.148-.352T13.5 4h-3q-.203 0-.352.148T10 4.5v5q0 .203.148.352T10.5 10h3q.203 0 .352-.148T14 9.5zm10 .5v14.5q0 .625-.438 1.062T22.5 26h-21q-.625 0-1.062-.438T0 24.5v-21q0-.625.438-1.062T1.5 2H16q.625 0 1.375.313t1.188.75l4.375 4.375q.438.438.75 1.188t.313 1.375z"/></svg><svg width="42" height="34.89" viewBox="-5.62 -5.62 47.25 39.25" id="google-plus" x="1192" y="1318"><path d="M22.453 14.266q0 3.25-1.359 5.789t-3.875 3.969-5.766 1.43q-2.328 0-4.453-.906T3.344 22.11.906 18.454 0 14.001t.906-4.453 2.438-3.656T7 3.454t4.453-.906q4.469 0 7.672 3l-3.109 2.984q-1.828-1.766-4.562-1.766-1.922 0-3.555.969t-2.586 2.633-.953 3.633.953 3.633 2.586 2.633 3.555.969q1.297 0 2.383-.359t1.789-.898 1.227-1.227.766-1.297.336-1.156h-6.5v-3.938h10.813q.187.984.187 1.906zM36 12.359v3.281h-3.266v3.266h-3.281V15.64h-3.266v-3.281h3.266V9.093h3.281v3.266H36z"/></svg><svg id="hvac" viewBox="-56.25 -56.25 472.5 472.5" width="42" height="42" x="1234" y="1353"><style>.bkst0{fill-rule:evenodd;clip-rule:evenodd;fill:#454545}</style><path class="bkst0" d="M112.3 197.2c5.6-3.5 10.5-6.8 14.7-10-.8-3.3-1.1-6.6-.9-10.2.6-11.9 7-22.2 16.4-28.3-4-4.8-10.7-9.3-20.1-13.6-116-52.4 42.4-129.4 49-8.4.2 6.7.7 12.6 1.4 18 14.1 4.5 24.3 17.4 24.9 32.5 6.3-.9 13.8-4.4 22.5-10.7C323.6 92.4 311 268 202.9 213.1c-6.1-3.2-11.7-5.9-16.8-8-6.8 6.3-16 9.9-26 9.3-5.1-.3-9.9-1.5-14.1-3.7-2.4 5.9-3 14.1-2 24.6 12.6 126.9-133.3 28.2-31.7-38.1zm63.7-17.7c.4-7.8-5.6-14.5-13.5-14.9s-14.5 5.6-14.9 13.5c-.4 7.8 5.7 14.5 13.5 14.9 7.9.4 14.6-5.6 14.9-13.5z"/></svg><svg width="26" height="38" viewBox="-5 -5 26 38" id="lightbulb-o" x="1276" y="1395"><path d="M11.5 9q0 .203-.148.352T11 9.5t-.352-.148T10.5 9q0-.719-.844-1.109T8 7.5q-.203 0-.352-.148T7.5 7t.148-.352T8 6.5q.781 0 1.555.25t1.359.844T11.5 9zM14 9q0-1.125-.539-2.094T12.055 5.32t-1.922-.969T8 3.999t-2.133.352-1.922.969-1.406 1.586T2 9q0 1.578 1.062 2.812.156.172.477.516t.477.516q2 2.391 2.203 4.656h3.563q.203-2.266 2.203-4.656.156-.172.477-.516t.477-.516Q14.001 10.578 14.001 9zm2 0q0 2.422-1.609 4.188-.703.766-1.164 1.359t-.93 1.492-.531 1.68q.734.438.734 1.281 0 .578-.391 1 .391.422.391 1 0 .812-.703 1.266.203.359.203.734 0 .719-.492 1.109t-1.211.391q-.313.688-.938 1.094T8 26t-1.359-.406-.938-1.094q-.719 0-1.211-.391T4 23q0-.375.203-.734Q3.5 21.813 3.5 21q0-.578.391-1-.391-.422-.391-1 0-.844.734-1.281-.063-.781-.531-1.68t-.93-1.492-1.164-1.359Q0 11.422 0 9q0-1.547.695-2.883t1.828-2.219 2.562-1.391 2.914-.508 2.914.508 2.562 1.391 1.828 2.219T15.998 9z"/></svg><svg width="34" height="38" viewBox="-5 -5 34 38" id="linkedin" x="1302" y="1433"><path d="M5.453 9.766V25.25H.297V9.766h5.156zm.328-4.782q.016 1.141-.789 1.906t-2.117.766h-.031q-1.281 0-2.063-.766T0 4.984Q0 3.828.805 3.07t2.102-.758 2.078.758.797 1.914zM24 16.375v8.875h-5.141v-8.281q0-1.641-.633-2.57t-1.977-.93q-.984 0-1.648.539t-.992 1.336q-.172.469-.172 1.266v8.641H8.296q.031-6.234.031-10.109t-.016-4.625l-.016-.75h5.141v2.25h-.031q.313-.5.641-.875t.883-.812 1.359-.68 1.789-.242q2.672 0 4.297 1.773t1.625 5.195z"/></svg><svg width="38" height="38" viewBox="-5 -5 38 38" id="list-ol" x="1336" y="1471"><path d="M5.953 25.312q0 1.25-.852 1.969T2.984 28q-1.656 0-2.688-1.031l.891-1.375q.766.703 1.656.703.453 0 .789-.227t.336-.664q0-1-1.641-.875l-.406-.875q.125-.156.508-.68t.664-.844.578-.602v-.016q-.25 0-.758.016t-.758.016v.828H.499v-2.375h5.203v1.375l-1.484 1.797q.797.187 1.266.766t.469 1.375zm.031-9.796V18H.328q-.094-.562-.094-.844 0-.797.367-1.453t.883-1.062 1.031-.742.883-.68.367-.703q0-.391-.227-.602t-.617-.211q-.719 0-1.266.906l-1.328-.922q.375-.797 1.117-1.242T3.092 10q1.141 0 1.922.648t.781 1.758q0 .781-.531 1.43t-1.172 1.008-1.18.789-.555.82h1.984v-.938h1.641zM28 20.5v3q0 .203-.148.352T27.5 24h-19q-.203 0-.352-.148T8 23.5v-3q0-.219.141-.359T8.5 20h19q.203 0 .352.148T28 20.5zM6 6.453V8H.766V6.453h1.672q0-.641.008-1.906t.008-1.891v-.187h-.031q-.125.266-.781.844L.533 2.125 2.658.141h1.656v6.312h1.687zM28 12.5v3q0 .203-.148.352T27.5 16h-19q-.203 0-.352-.148T8 15.5v-3q0-.219.141-.359T8.5 12h19q.203 0 .352.148T28 12.5zm0-8v3q0 .203-.148.352T27.5 8h-19q-.203 0-.352-.148T8 7.5v-3q0-.203.148-.352T8.5 4h19q.203 0 .352.148T28 4.5z"/></svg><svg width="38" height="38" viewBox="-5 -5 38 38" id="list-ul" x="1374" y="1509"><path d="M6 22q0 1.25-.875 2.125T3 25t-2.125-.875T0 22t.875-2.125T3 19t2.125.875T6 22zm0-8q0 1.25-.875 2.125T3 17t-2.125-.875T0 14t.875-2.125T3 11t2.125.875T6 14zm22 6.5v3q0 .203-.148.352T27.5 24h-19q-.203 0-.352-.148T8 23.5v-3q0-.203.148-.352T8.5 20h19q.203 0 .352.148T28 20.5zM6 6q0 1.25-.875 2.125T3 9 .875 8.125 0 6t.875-2.125T3 3t2.125.875T6 6zm22 6.5v3q0 .203-.148.352T27.5 16h-19q-.203 0-.352-.148T8 15.5v-3q0-.203.148-.352T8.5 12h19q.203 0 .352.148T28 12.5zm0-8v3q0 .203-.148.352T27.5 8h-19q-.203 0-.352-.148T8 7.5v-3q0-.203.148-.352T8.5 4h19q.203 0 .352.148T28 4.5z"/></svg><svg width="28" height="38" viewBox="-5 -5 28 38" id="lock" x="1412" y="1547"><path d="M5 12h8V9q0-1.656-1.172-2.828T9 5 6.172 6.172 5 9v3zm13 1.5v9q0 .625-.438 1.062T16.5 24h-15q-.625 0-1.062-.438T0 22.5v-9q0-.625.438-1.062T1.5 12H2V9q0-2.875 2.063-4.937T9 2t4.937 2.063T16 9v3h.5q.625 0 1.062.438T18 13.5z"/></svg><svg width="26" height="38" viewBox="-5 -5 26 38" id="map-marker" x="1440" y="1585"><path d="M12 10q0-1.656-1.172-2.828T8 6 5.172 7.172 4 10t1.172 2.828T8 14t2.828-1.172T12 10zm4 0q0 1.703-.516 2.797L9.796 24.891q-.25.516-.742.812T7.999 26t-1.055-.297-.727-.812L.514 12.797Q-.002 11.703-.002 10q0-3.313 2.344-5.656T7.998 2t5.656 2.344T15.998 10z"/></svg><svg width="34" height="38" viewBox="-5 -5 34 38" id="minus-square" x="1466" y="1623"><path d="M20 15v-2q0-.406-.297-.703T19 12H5q-.406 0-.703.297T4 13v2q0 .406.297.703T5 16h14q.406 0 .703-.297T20 15zm4-8.5v15q0 1.859-1.32 3.18T19.5 26h-15q-1.859 0-3.18-1.32T0 21.5v-15q0-1.859 1.32-3.18T4.5 2h15q1.859 0 3.18 1.32T24 6.5z"/></svg><svg width="32" height="38" viewBox="-5 -5 32 38" id="minus-square-o" x="1500" y="1661"><path d="M18 12.5v1q0 .219-.141.359T17.5 14h-13q-.219 0-.359-.141T4 13.5v-1q0-.219.141-.359T4.5 12h13q.219 0 .359.141T18 12.5zm2 7v-13q0-1.031-.734-1.766T17.5 4h-13q-1.031 0-1.766.734T2 6.5v13q0 1.031.734 1.766T4.5 22h13q1.031 0 1.766-.734T20 19.5zm2-13v13q0 1.859-1.32 3.18T17.5 24h-13q-1.859 0-3.18-1.32T0 19.5v-13q0-1.859 1.32-3.18T4.5 2h13q1.859 0 3.18 1.32T22 6.5z"/></svg><svg width="42" height="38" viewBox="-5 -5 42 38" id="newspaper-o" x="1532" y="1699"><path d="M16 8h-6v6h6V8zm2 10v2H8v-2h10zm0-12v10H8V6h10zm10 12v2h-8v-2h8zm0-4v2h-8v-2h8zm0-4v2h-8v-2h8zm0-4v2h-8V6h8zM4 21V6H2v15q0 .406.297.703T3 22t.703-.297T4 21zm26 0V4H6v17q0 .516-.172 1H29q.406 0 .703-.297T30 21zm2-19v19q0 1.25-.875 2.125T29 24H3q-1.25 0-2.125-.875T0 21V4h4V2h28z"/></svg><svg width="34" height="38" viewBox="-5 -5 34 38" id="pencil" x="1574" y="1737"><path d="M5.672 24l1.422-1.422-3.672-3.672L2 20.328V22h2v2h1.672zm8.172-14.5q0-.344-.344-.344-.156 0-.266.109l-8.469 8.469q-.109.109-.109.266 0 .344.344.344.156 0 .266-.109l8.469-8.469q.109-.109.109-.266zM13 6.5l6.5 6.5-13 13H0v-6.5zM23.672 8q0 .828-.578 1.406L20.5 12 14 5.5l2.594-2.578q.562-.594 1.406-.594.828 0 1.422.594l3.672 3.656q.578.609.578 1.422z"/></svg><svg width="32" height="38" viewBox="-5 -5 32 38" id="phone" x="1608" y="1775"><path d="M22 19.375q0 .422-.156 1.102t-.328 1.07q-.328.781-1.906 1.656-1.469.797-2.906.797-.422 0-.82-.055t-.898-.195-.742-.227-.867-.32-.766-.281q-1.531-.547-2.734-1.297-2-1.234-4.133-3.367t-3.367-4.133q-.75-1.203-1.297-2.734-.047-.141-.281-.766t-.32-.867-.227-.742-.195-.898-.055-.82q0-1.437.797-2.906.875-1.578 1.656-1.906.391-.172 1.07-.328t1.102-.156q.219 0 .328.047.281.094.828 1.188.172.297.469.844t.547.992.484.836q.047.063.273.391t.336.555.109.445q0 .313-.445.781t-.969.859-.969.828-.445.719q0 .141.078.352t.133.32.219.375.18.297q1.188 2.141 2.719 3.672t3.672 2.719q.031.016.297.18t.375.219.32.133.352.078q.281 0 .719-.445t.828-.969.859-.969.781-.445q.219 0 .445.109t.555.336.391.273q.391.234.836.484t.992.547.844.469q1.094.547 1.188.828.047.109.047.328z"/></svg><svg width="38" height="38" viewBox="-5 -5 38 38" id="plug" x="1640" y="1813"><path d="M27.422 7.078Q28 7.656 28 8.484t-.578 1.422l-6.266 6.25L23.5 18.5 21 21q-2.547 2.547-6.086 2.914t-6.43-1.57L2.828 28H0v-2.828l5.656-5.656q-1.937-2.891-1.57-6.43T7 7l2.5-2.5 2.344 2.344 6.25-6.266Q18.688 0 19.516 0t1.406.578.578 1.414-.578 1.414l-6.25 6.266 3.656 3.656 6.266-6.25q.594-.578 1.422-.578t1.406.578z"/></svg><svg width="34" height="38" viewBox="-5 -5 34 38" id="plus-circle" x="1678" y="1851"><path d="M19 15v-2q0-.406-.297-.703T18 12h-4V8q0-.406-.297-.703T13 7h-2q-.406 0-.703.297T10 8v4H6q-.406 0-.703.297T5 13v2q0 .406.297.703T6 16h4v4q0 .406.297.703T11 21h2q.406 0 .703-.297T14 20v-4h4q.406 0 .703-.297T19 15zm5-1q0 3.266-1.609 6.023t-4.367 4.367-6.023 1.609-6.023-1.609-4.367-4.367T.002 14t1.609-6.023T5.978 3.61t6.023-1.609 6.023 1.609 4.367 4.367T24 14z"/></svg><svg width="36" height="38" viewBox="-5 -5 36 38" id="print" x="1712" y="1889"><path d="M6 24h14v-4H6v4zm0-10h14V8h-2.5q-.625 0-1.062-.438T16 6.5V4H6v10zm18 1q0-.406-.297-.703T23 14t-.703.297T22 15t.297.703T23 16t.703-.297T24 15zm2 0v6.5q0 .203-.148.352T25.5 22H22v2.5q0 .625-.438 1.062T20.5 26h-15q-.625 0-1.062-.438T4 24.5V22H.5q-.203 0-.352-.148T0 21.5V15q0-1.234.883-2.117T3 12h1V3.5q0-.625.438-1.062T5.5 2H16q.625 0 1.375.313t1.188.75l2.375 2.375q.438.438.75 1.188t.313 1.375v4h1q1.234 0 2.117.883t.883 2.117z"/></svg><svg width="27" height="38" viewBox="-5 -5 27 38" id="question" x="1748" y="1927"><path d="M11 19.625v3.75q0 .25-.187.438t-.438.187h-3.75q-.25 0-.438-.187T6 23.375v-3.75q0-.25.187-.438T6.625 19h3.75q.25 0 .438.187t.187.438zm4.937-9.375q0 .844-.242 1.578t-.547 1.195-.859.93-.898.68-.953.555q-.641.359-1.07 1.016t-.43 1.047q0 .266-.187.508t-.438.242h-3.75q-.234 0-.398-.289t-.164-.586v-.703q0-1.297 1.016-2.445t2.234-1.695q.922-.422 1.313-.875t.391-1.188q0-.656-.727-1.156t-1.68-.5q-1.016 0-1.687.453-.547.391-1.672 1.797-.203.25-.484.25-.187 0-.391-.125L1.752 8.986q-.203-.156-.242-.391t.086-.438q2.5-4.156 7.25-4.156 1.25 0 2.516.484t2.281 1.297 1.656 1.992.641 2.477z"/></svg><svg width="36" height="38" viewBox="-5 -5 36 38" id="search" x="1775" y="1965"><path d="M18 13q0-2.891-2.055-4.945T11 6 6.055 8.055 4 13t2.055 4.945T11 20t4.945-2.055T18 13zm8 13q0 .812-.594 1.406T24 28q-.844 0-1.406-.594l-5.359-5.344q-2.797 1.937-6.234 1.937-2.234 0-4.273-.867t-3.516-2.344-2.344-3.516-.867-4.273.867-4.273T3.212 5.21t3.516-2.344 4.273-.867 4.273.867T18.79 5.21t2.344 3.516.867 4.273q0 3.437-1.937 6.234l5.359 5.359q.578.578.578 1.406z"/></svg><svg width="42" height="38" viewBox="-5 -5 42 38" id="ship" x="1811" y="2003"><path d="M28.297 24.297Q28.594 24 29 24t.703.297l2 2-1.406 1.406L29 26.406l-1.297 1.297Q27.422 28 27 28t-.703-.297L25 26.406l-1.297 1.297Q23.406 28 23 28t-.703-.297L21 26.406l-1.297 1.297Q19.406 28 19 28t-.703-.297L17 26.406l-1.297 1.297Q15.406 28 15 28t-.703-.297L13 26.406l-1.297 1.297Q11.406 28 11 28t-.703-.297L9 26.406l-1.297 1.297Q7.406 28 7 28t-.703-.297L5 26.406l-1.297 1.297Q3.406 28 3 28t-.703-.297l-2-2 1.406-1.406L3 25.594l1.297-1.297Q4.594 24 5 24t.703.297L7 25.594l1.297-1.297Q8.594 24 9 24t.703.297L11 25.594l1.297-1.297Q12.594 24 13 24t.703.297L15 25.594l1.297-1.297Q16.594 24 17 24t.703.297L19 25.594l1.297-1.297Q20.594 24 21 24t.703.297L23 25.594l1.297-1.297Q24.594 24 25 24t.703.297L27 25.594zm-24.594-.594Q3.406 24 3 24t-.703-.297l-2-2 1.406-1.406L3 21.578l1.297-1.281Q4.594 20 5 20t.703.297L7 21.578l1-1V16l-3.281-4.906q-.266-.406-.109-.883t.625-.633l2.766-.906V4h2V2h4V0h4v2h4v2h2v4.672l2.766.906q.469.156.625.633t-.109.883L24.002 16v4.578l.297-.281q.297-.297.703-.297t.703.297l1.297 1.281 1.297-1.281q.297-.297.703-.297t.703.297l2 2-1.406 1.406-1.297-1.297-1.297 1.297q-.281.297-.703.297t-.703-.297l-1.297-1.297-1.297 1.297q-.297.297-.703.297t-.703-.297l-1.297-1.297-1.297 1.297q-.297.297-.703.297t-.703-.297l-1.297-1.297-1.297 1.297q-.297.297-.703.297t-.703-.297l-1.297-1.297-1.297 1.297q-.297.297-.703.297t-.703-.297l-1.297-1.297-1.297 1.297Q7.408 24 7.002 24t-.703-.297l-1.297-1.297zM10 6v2l6-2 6 2V6h-2V4h-8v2h-2z"/></svg><svg width="36" height="38" viewBox="-5 -5 36 38" id="shopping-cart" x="1853" y="2041"><path d="M10 24q0 .812-.594 1.406T8 26t-1.406-.594T6 24t.594-1.406T8 22t1.406.594T10 24zm14 0q0 .812-.594 1.406T22 26t-1.406-.594T20 24t.594-1.406T22 22t1.406.594T24 24zm2-17v8q0 .375-.258.664t-.633.336L8.797 17.906Q9 18.844 9 19q0 .25-.375 1H23q.406 0 .703.297T24 21t-.297.703T23 22H7q-.406 0-.703-.297T6 21q0-.172.125-.492t.25-.562.336-.625.242-.461L4.187 6.001H1q-.406 0-.703-.297T0 5.001t.297-.703T1 4.001h4q.25 0 .445.102t.305.242.203.383.125.406.086.461.07.406H25q.406 0 .703.297t.297.703z"/></svg><svg width="26" height="38" viewBox="-5 -5 26 38" id="sort" x="1889" y="2079"><path d="M16 17q0 .406-.297.703l-7 7Q8.406 25 8 25t-.703-.297l-7-7Q0 17.406 0 17t.297-.703T1 16h14q.406 0 .703.297T16 17zm0-6q0 .406-.297.703T15 12H1q-.406 0-.703-.297T0 11t.297-.703l7-7Q7.594 3 8 3t.703.297l7 7Q16 10.594 16 11z"/></svg><svg width="26" height="38" viewBox="-5 -5 26 38" id="sort-asc" x="1915" y="2117"><path d="M16 11q0 .406-.297.703T15 12H1q-.406 0-.703-.297T0 11t.297-.703l7-7Q7.594 3 8 3t.703.297l7 7Q16 10.594 16 11z"/></svg><svg width="26" height="38" viewBox="-5 -5 26 38" id="sort-desc" x="1941" y="2155"><path d="M16 17q0 .406-.297.703l-7 7Q8.406 25 8 25t-.703-.297l-7-7Q0 17.406 0 17t.297-.703T1 16h14q.406 0 .703.297T16 17z"/></svg><svg width="38" height="38" viewBox="-5 -5 38 38" id="spinner" x="1967" y="2193"><path d="M8.219 21.781q0 .828-.586 1.414t-1.414.586q-.812 0-1.406-.594t-.594-1.406q0-.828.586-1.414t1.414-.586 1.414.586.586 1.414zM16 25q0 .828-.586 1.414T14 27t-1.414-.586T12 25t.586-1.414T14 23t1.414.586T16 25zM5 14q0 .828-.586 1.414T3 16t-1.414-.586T1 14t.586-1.414T3 12t1.414.586T5 14zm18.781 7.781q0 .812-.594 1.406t-1.406.594q-.828 0-1.414-.586t-.586-1.414.586-1.414 1.414-.586 1.414.586.586 1.414zM8.719 6.219q0 1.031-.734 1.766t-1.766.734-1.766-.734-.734-1.766.734-1.766 1.766-.734 1.766.734.734 1.766zM27 14q0 .828-.586 1.414T25 16t-1.414-.586T23 14t.586-1.414T25 12t1.414.586T27 14zM17 3q0 1.25-.875 2.125T14 6t-2.125-.875T11 3t.875-2.125T14 0t2.125.875T17 3zm8.281 3.219q0 1.453-1.031 2.477t-2.469 1.023q-1.453 0-2.477-1.023t-1.023-2.477q0-1.437 1.023-2.469t2.477-1.031q1.437 0 2.469 1.031t1.031 2.469z"/></svg><svg width="34" height="38" viewBox="-5 -5 34 38" id="times-circle" x="2005" y="2231"><path d="M17.953 17.531q0-.406-.297-.703L14.828 14l2.828-2.828q.297-.297.297-.703 0-.422-.297-.719L16.25 8.344q-.297-.297-.719-.297-.406 0-.703.297L12 11.172 9.172 8.344q-.297-.297-.703-.297-.422 0-.719.297L6.344 9.75q-.297.297-.297.719 0 .406.297.703L9.172 14l-2.828 2.828q-.297.297-.297.703 0 .422.297.719l1.406 1.406q.297.297.719.297.406 0 .703-.297L12 16.828l2.828 2.828q.297.297.703.297.422 0 .719-.297l1.406-1.406q.297-.297.297-.719zM24 14q0 3.266-1.609 6.023t-4.367 4.367-6.023 1.609-6.023-1.609-4.367-4.367T.002 14t1.609-6.023T5.978 3.61t6.023-1.609 6.023 1.609 4.367 4.367T24 14z"/></svg><svg width="34" height="38" viewBox="-5 -5 34 38" id="times-circle-o" x="2039" y="2269"><path d="M17.141 16.859L14.86 19.14q-.156.156-.359.156t-.359-.156l-2.141-2.141L9.86 19.14q-.156.156-.359.156t-.359-.156l-2.281-2.281q-.156-.156-.156-.359t.156-.359L9.002 14l-2.141-2.141q-.156-.156-.156-.359t.156-.359L9.142 8.86q.156-.156.359-.156t.359.156l2.141 2.141 2.141-2.141q.156-.156.359-.156t.359.156l2.281 2.281q.156.156.156.359t-.156.359L15 14l2.141 2.141q.156.156.156.359t-.156.359zM20.5 14q0-2.312-1.141-4.266T16.265 6.64t-4.266-1.141T7.733 6.64 4.639 9.734 3.498 14t1.141 4.266 3.094 3.094 4.266 1.141 4.266-1.141 3.094-3.094T20.5 14zm3.5 0q0 3.266-1.609 6.023t-4.367 4.367-6.023 1.609-6.023-1.609-4.367-4.367T.002 14t1.609-6.023T5.978 3.61t6.023-1.609 6.023 1.609 4.367 4.367T24 14z"/></svg><svg width="42" height="38" viewBox="-5 -5 42 38" id="toggle-off" x="2073" y="2307"><path d="M18 14q0-1.625-.633-3.102t-1.711-2.555-2.555-1.711-3.102-.633-3.102.633-2.555 1.711-1.711 2.555T1.998 14t.633 3.102 1.711 2.555 2.555 1.711 3.102.633 3.102-.633 2.555-1.711 1.711-2.555T18 14zm12 0q0-1.625-.633-3.102t-1.711-2.555-2.555-1.711-3.102-.633h-6.031q1.859 1.406 2.945 3.5t1.086 4.5-1.086 4.5-2.945 3.5h6.031q1.625 0 3.102-.633t2.555-1.711 1.711-2.555.633-3.102zm2 0q0 2.031-.797 3.883T29.07 21.07t-3.187 2.133T22 24H10q-2.031 0-3.883-.797T2.93 21.07.797 17.883 0 14t.797-3.883T2.93 6.93t3.187-2.133T10 4h12q2.031 0 3.883.797T29.07 6.93t2.133 3.187T32 14z"/></svg><svg width="42" height="38" viewBox="-5 -5 42 38" id="toggle-on" x="2115" y="2345"><path d="M0 14q0-2.031.797-3.883T2.93 6.93t3.187-2.133T10 4h12q2.031 0 3.883.797T29.07 6.93t2.133 3.187T32 14t-.797 3.883-2.133 3.187-3.187 2.133T22 24H10q-2.031 0-3.883-.797T2.93 21.07.797 17.883 0 14zm22 8q1.625 0 3.102-.633t2.555-1.711 1.711-2.555.633-3.102-.633-3.102-1.711-2.555-2.555-1.711T22 5.998t-3.102.633-2.555 1.711-1.711 2.555-.633 3.102.633 3.102 1.711 2.555 2.555 1.711T22 22z"/></svg><svg width="36" height="38" viewBox="-5 -5 36 38" id="twitter" x="2157" y="2383"><path d="M25.312 6.375q-1.047 1.531-2.531 2.609.016.219.016.656 0 2.031-.594 4.055t-1.805 3.883-2.883 3.289-4.031 2.281T8.437 24q-4.234 0-7.75-2.266.547.063 1.219.063 3.516 0 6.266-2.156-1.641-.031-2.938-1.008t-1.781-2.492q.516.078.953.078.672 0 1.328-.172-1.75-.359-2.898-1.742t-1.148-3.211v-.063q1.062.594 2.281.641-1.031-.688-1.641-1.797t-.609-2.406q0-1.375.688-2.547Q4.298 7.25 7.009 8.649t5.805 1.555q-.125-.594-.125-1.156 0-2.094 1.477-3.57t3.57-1.477q2.188 0 3.687 1.594 1.703-.328 3.203-1.219-.578 1.797-2.219 2.781 1.453-.156 2.906-.781z"/></svg><svg width="28" height="38" viewBox="-5 -5 28 38" id="unlock-alt" x="2193" y="2421"><path d="M16.5 12q.625 0 1.062.438T18 13.5v9q0 .625-.438 1.062T16.5 24h-15q-.625 0-1.062-.438T0 22.5v-9q0-.625.438-1.062T1.5 12H2V7q0-2.891 2.055-4.945T9 0t4.945 2.055T16 7q0 .406-.297.703T15 8h-1q-.406 0-.703-.297T13 7q0-1.656-1.172-2.828T9 3 6.172 4.172 5 7v5h11.5z"/></svg><svg width="36" height="38" viewBox="-5 -5 36 38" id="upload" x="2221" y="2459"><path d="M20 23q0-.406-.297-.703T19 22t-.703.297T18 23t.297.703T19 24t.703-.297T20 23zm4 0q0-.406-.297-.703T23 22t-.703.297T22 23t.297.703T23 24t.703-.297T24 23zm2-3.5v5q0 .625-.438 1.062T24.5 26h-23q-.625 0-1.062-.438T0 24.5v-5q0-.625.438-1.062T1.5 18h6.672q.328.875 1.102 1.437t1.727.562h4q.953 0 1.727-.562T17.83 18h6.672q.625 0 1.062.438t.438 1.062zM20.922 9.375Q20.656 10 20 10h-4v7q0 .406-.297.703T15 18h-4q-.406 0-.703-.297T10 17v-7H6q-.656 0-.922-.625-.266-.609.219-1.078l7-7Q12.578 1 13 1t.703.297l7 7q.484.469.219 1.078z"/></svg><svg width="32" height="38" viewBox="-5 -5 32 38" id="user" x="2257" y="2497"><path d="M22 21.953q0 1.875-1.141 2.961T17.828 26H4.172q-1.891 0-3.031-1.086T0 21.953q0-.828.055-1.617t.219-1.703.414-1.695.672-1.523.969-1.266 1.336-.836T5.407 13q.141 0 .656.336t1.164.75 1.687.75 2.086.336 2.086-.336 1.687-.75 1.164-.75.656-.336q.953 0 1.742.313t1.336.836.969 1.266.672 1.523.414 1.695.219 1.703.055 1.617zM17 8q0 2.484-1.758 4.242T11 14t-4.242-1.758T5 8t1.758-4.242T11 2t4.242 1.758T17 8z"/></svg><svg width="42" height="38" viewBox="-5 -5 42 38" id="user-plus" x="2289" y="2535"><path d="M11 14q-2.484 0-4.242-1.758T5 8t1.758-4.242T11 2t4.242 1.758T17 8t-1.758 4.242T11 14zm15 2h5.5q.203 0 .352.148T32 16.5v3q0 .203-.148.352T31.5 20H26v5.5q0 .203-.148.352T25.5 26h-3q-.203 0-.352-.148T22 25.5V20h-5.5q-.203 0-.352-.148T16 19.5v-3q0-.203.148-.352T16.5 16H22v-5.5q0-.203.148-.352T22.5 10h3q.203 0 .352.148T26 10.5V16zm-11.5 3.5q0 .812.594 1.406t1.406.594h4v3.719Q19.438 26 17.828 26H4.172q-1.891 0-3.031-1.078T0 21.953q0-.828.055-1.617t.219-1.703.414-1.695.672-1.523.969-1.266 1.336-.836T5.407 13q.297 0 .609.266 1.234.953 2.414 1.43t2.57.477 2.57-.477 2.414-1.43q.313-.266.609-.266 2.063 0 3.391 1.5H16.5q-.812 0-1.406.594T14.5 16.5v3z"/></svg><svg width="42" height="38" viewBox="-5 -5 42 38" id="user-times" x="2331" y="2573"><path d="M11 14q-2.484 0-4.242-1.758T5 8t1.758-4.242T11 2t4.242 1.758T17 8t-1.758 4.242T11 14zm16.828 5l3.891 3.891q.141.141.141.359 0 .203-.141.344l-2.125 2.125q-.141.141-.344.141-.219 0-.359-.141L25 21.828l-3.891 3.891q-.141.141-.359.141-.203 0-.344-.141l-2.125-2.125q-.141-.141-.141-.344 0-.219.141-.359L22.172 19l-3.891-3.891q-.141-.141-.141-.359 0-.203.141-.344l2.125-2.125q.141-.141.344-.141.219 0 .359.141L25 16.172l3.891-3.891q.141-.141.359-.141.203 0 .344.141l2.125 2.125q.141.141.141.344 0 .219-.141.359zm-7.781 0l-2.828 2.828q-.578.578-.578 1.422 0 .828.578 1.406l1.297 1.297q-.328.047-.688.047H4.172q-1.891 0-3.031-1.078T0 21.953q0-.828.055-1.617t.219-1.703.414-1.695.672-1.523.969-1.266 1.336-.836T5.407 13q.297 0 .609.266Q8.422 15.172 11 15.172t4.984-1.906q.313-.266.609-.266.438 0 .891.094-.438.422-.641.781t-.203.875q0 .844.578 1.422z"/></svg><svg width="36" height="38" viewBox="-5 -5 36 38" id="wrench" x="2373" y="2611"><path d="M6 23q0-.406-.297-.703T5 22t-.703.297T4 23t.297.703T5 24t.703-.297T6 23zm10.063-6.562L5.407 27.094q-.578.578-1.406.578-.812 0-1.422-.578L.923 25.407q-.594-.562-.594-1.406 0-.828.594-1.422l10.641-10.641q.609 1.531 1.789 2.711t2.711 1.789zm9.906-6.797q0 .609-.359 1.656-.734 2.094-2.57 3.398T19.001 16q-2.891 0-4.945-2.055T12.001 9t2.055-4.945T19.001 2q.906 0 1.898.258t1.68.727q.25.172.25.438t-.25.438l-4.578 2.641v3.5l3.016 1.672 1.234-.758q1.156-.711 2.117-1.266t1.102-.555q.234 0 .367.156t.133.391z"/></svg><svg width="34" height="38" viewBox="-5 -5 34 38" id="youtube" x="2409" y="2649"><path d="M15.172 19.437v3.297q0 1.047-.609 1.047-.359 0-.703-.344v-4.703q.344-.344.703-.344.609 0 .609 1.047zm5.281.016v.719h-1.406v-.719q0-1.062.703-1.062t.703 1.062zM5.359 16.047h1.672v-1.469H2.156v1.469h1.641v8.891H5.36v-8.891zm4.5 8.891h1.391v-7.719H9.859v5.906q-.469.656-.891.656-.281 0-.328-.328-.016-.047-.016-.547v-5.688H7.233v6.109q0 .766.125 1.141.187.578.906.578.75 0 1.594-.953v.844zm6.703-2.313v-3.078q0-1.141-.141-1.547-.266-.875-1.109-.875-.781 0-1.453.844v-3.391h-1.391v10.359h1.391v-.75q.703.859 1.453.859.844 0 1.109-.859.141-.422.141-1.563zm5.282-.156v-.203h-1.422q0 .797-.031.953-.109.562-.625.562-.719 0-.719-1.078v-1.359h2.797v-1.609q0-1.234-.422-1.813-.609-.797-1.656-.797-1.062 0-1.672.797-.438.578-.438 1.813v2.703q0 1.234.453 1.813.609.797 1.687.797 1.125 0 1.687-.828.281-.422.328-.844.031-.141.031-.906zm-9.5-14.266V4.922q0-1.078-.672-1.078T11 4.922v3.281q0 1.094.672 1.094t.672-1.094zm11.234 11.735q0 3.656-.406 5.469-.219.922-.906 1.547t-1.594.719q-2.875.328-8.672.328t-8.672-.328q-.906-.094-1.602-.719t-.898-1.547q-.406-1.75-.406-5.469 0-3.656.406-5.469.219-.922.906-1.547t1.609-.734q2.859-.313 8.656-.313t8.672.313q.906.109 1.602.734t.898 1.547q.406 1.75.406 5.469zM7.984 0h1.594L7.687 6.234v4.234H6.124V6.234q-.219-1.156-.953-3.313-.578-1.609-1.016-2.922h1.656L6.92 4.108zm5.782 5.203v2.734q0 1.266-.438 1.844-.578.797-1.656.797-1.047 0-1.641-.797-.438-.594-.438-1.844V5.203q0-1.25.438-1.828.594-.797 1.641-.797 1.078 0 1.656.797.438.578.438 1.828zM19 2.672v7.797h-1.422V9.61q-.828.969-1.609.969-.719 0-.922-.578-.125-.375-.125-1.172V2.673h1.422v5.734q0 .516.016.547.047.344.328.344.422 0 .891-.672V2.673h1.422z"/></svg></svg>