<?xml version="1.0" encoding="UTF-8" standalone="no"?>
<!-- Generator: Adobe Illustrator 20.0.0, SVG Export Plug-In . SVG Version: 6.00 Build 0)  -->

<svg
   xmlns:dc="http://purl.org/dc/elements/1.1/"
   xmlns:cc="http://creativecommons.org/ns#"
   xmlns:rdf="http://www.w3.org/1999/02/22-rdf-syntax-ns#"
   xmlns:svg="http://www.w3.org/2000/svg"
   xmlns="http://www.w3.org/2000/svg"
   xmlns:sodipodi="http://sodipodi.sourceforge.net/DTD/sodipodi-0.dtd"
   xmlns:inkscape="http://www.inkscape.org/namespaces/inkscape"
   version="1.1"
   id="Layer_1"
   x="0px"
   y="0px"
   viewBox="0 0 360 360"
   style="enable-background:new 0 0 360 360;"
   xml:space="preserve"
   inkscape:version="0.91 r13725"
   sodipodi:docname="hvac.svg"><metadata
     id="metadata3410"><rdf:RDF><cc:Work
         rdf:about=""><dc:format>image/svg+xml</dc:format><dc:type
           rdf:resource="http://purl.org/dc/dcmitype/StillImage" /><dc:title></dc:title></cc:Work></rdf:RDF></metadata><defs
     id="defs3408" /><sodipodi:namedview
     pagecolor="#ffffff"
     bordercolor="#666666"
     borderopacity="1"
     objecttolerance="10"
     gridtolerance="10"
     guidetolerance="10"
     inkscape:pageopacity="0"
     inkscape:pageshadow="2"
     inkscape:window-width="1920"
     inkscape:window-height="988"
     id="namedview3406"
     showgrid="false"
     inkscape:zoom="2.2638889"
     inkscape:cx="180"
     inkscape:cy="180"
     inkscape:window-x="0"
     inkscape:window-y="30"
     inkscape:window-maximized="1"
     inkscape:current-layer="Layer_1" /><style
     type="text/css"
     id="style3402">
	.st0{fill-rule:evenodd;clip-rule:evenodd;fill:#454545;}
</style><path
     class="st0"
     d="m 71.151497,207.12073 c 8.596679,-5.37292 16.118774,-10.43882 22.566283,-15.35121 -1.228097,-5.0659 -1.688633,-10.1318 -1.381609,-15.65824 0.921073,-18.26794 10.745849,-34.07969 25.175979,-43.44393 -6.14048,-7.36858 -16.42579,-14.27663 -30.855928,-20.87765 -178.074067,-80.440352 65.089138,-198.644689 75.220938,-12.895017 0.30702,10.285317 1.07458,19.342527 2.14917,27.632187 21.64521,6.90804 37.30345,26.71111 38.22452,49.89143 9.67126,-1.3816 21.18467,-6.75453 34.54023,-16.42579 158.73154,-113.752486 139.38901,155.81481 -26.5576,71.53665 -9.36424,-4.91239 -17.96092,-9.05722 -25.79004,-12.28097 -10.43882,9.67126 -24.56194,15.1977 -39.91315,14.27663 -7.82912,-0.46054 -15.1977,-2.30269 -21.64521,-5.67995 -3.68429,9.05721 -4.60536,21.64521 -3.07024,37.76398 19.34252,194.80689 -204.631662,43.29042 -48.663343,-58.48812 z m 97.787223,-27.17165 c 0.61405,-11.97394 -8.59668,-22.25925 -20.72414,-22.8733 -12.12746,-0.61405 -22.25926,8.59668 -22.87331,20.72413 -0.61405,11.97395 8.75019,22.25926 20.72414,22.87331 12.12746,0.61405 22.41277,-8.59668 22.87331,-20.72414 z"
     id="path3404"
     inkscape:connector-curvature="0"
     style="clip-rule:evenodd;fill:#454545;fill-rule:evenodd" /></svg>