<?xml version="1.0" encoding="UTF-8" standalone="no"?>
<svg
   xmlns:dc="http://purl.org/dc/elements/1.1/"
   xmlns:cc="http://creativecommons.org/ns#"
   xmlns:rdf="http://www.w3.org/1999/02/22-rdf-syntax-ns#"
   xmlns:svg="http://www.w3.org/2000/svg"
   xmlns="http://www.w3.org/2000/svg"
   viewBox="0 0 556.6875 90.199997"
   height="90.199997"
   width="556.6875"
   xml:space="preserve"
   version="1.1"
   id="svg3355"><metadata
     id="metadata3361"><rdf:RDF><cc:Work
         rdf:about=""><dc:format>image/svg+xml</dc:format><dc:type
           rdf:resource="http://purl.org/dc/dcmitype/StillImage" /><dc:title></dc:title></cc:Work></rdf:RDF></metadata><defs
     id="defs3359" /><g
     transform="matrix(1.25,0,0,-1.25,0,90.2)"
     id="g3363"><g
       transform="scale(0.1,0.1)"
       id="g3365"><path
         id="path3367"
         style="fill:#1a68bb;fill-opacity:1;fill-rule:nonzero;stroke:none"
         d="M 646.82,526.426 C 670.844,479.844 684.402,426.988 684.402,370.961 684.402,183.352 532.313,31.2617 344.703,31.2617 157.094,31.2617 5,183.352 5,370.961 5,558.57 157.094,710.664 344.703,710.664 c 55.086,0 102.723,-18.973 150.203,-46.644 l -2.195,-135.606 c 0,0 -65.988,47.602 -145.078,47.602 -79.094,0 -196.266,-64.446 -196.266,-207.985 0,-143.535 120.102,-193.336 187.477,-193.336 96.668,0 166.972,58.586 228.492,131.825 l -229.957,0 0,131.82 227.023,0 -61.515,87.875 143.933,0.211" /><path
         id="path3369"
         style="fill:none;stroke:#1a68bb;stroke-width:10;stroke-linecap:butt;stroke-linejoin:miter;stroke-miterlimit:4;stroke-dasharray:none;stroke-opacity:1"
         d="M 646.82,526.426 C 670.844,479.844 684.402,426.988 684.402,370.961 684.402,183.352 532.313,31.2617 344.703,31.2617 157.094,31.2617 5,183.352 5,370.961 5,558.57 157.094,710.664 344.703,710.664 c 55.086,0 102.723,-18.973 150.203,-46.644 l -2.195,-135.606 c 0,0 -65.988,47.602 -145.078,47.602 -79.094,0 -196.266,-64.446 -196.266,-207.985 0,-143.535 120.102,-193.336 187.477,-193.336 96.668,0 166.972,58.586 228.492,131.825 l -229.957,0 0,131.82 227.023,0 -61.515,87.875 143.933,0.211 z" /><path
         id="path3371"
         style="fill:#1a68bb;fill-opacity:1;fill-rule:nonzero;stroke:none"
         d="m 601.02,146.863 244.601,221.168 -158.183,158.184 -131.825,0 45.407,-379.352" /><path
         id="path3373"
         style="fill:none;stroke:#1a68bb;stroke-width:10;stroke-linecap:butt;stroke-linejoin:miter;stroke-miterlimit:4;stroke-dasharray:none;stroke-opacity:1"
         d="m 601.02,146.863 244.601,221.168 -158.183,158.184 -131.825,0 45.407,-379.352 z" /><path
         id="path3375"
         style="fill:#1a68bb;fill-opacity:1;fill-rule:nonzero;stroke:none"
         d="m 678.648,660.969 0,-140.61 c 0,0 68.848,54.621 158.184,55.657 99.606,1.152 191.878,-77.625 191.878,-203.59 0,-127.426 -102.534,-210.91 -196.272,-210.91 -93.743,0 -150.86,62.98 -150.86,62.98 l 0,-147.9335 c 0,0 71.766,-51.2656 156.719,-51.2656 84.949,0 329.553,73.2383 329.553,339.8051 0,266.574 -222.631,348.593 -319.299,348.593 -105.461,0 -169.903,-52.726 -169.903,-52.726" /><path
         id="path3377"
         style="fill:none;stroke:#1a68bb;stroke-width:10;stroke-linecap:butt;stroke-linejoin:miter;stroke-miterlimit:4;stroke-dasharray:none;stroke-opacity:1"
         d="m 678.648,660.969 0,-140.61 c 0,0 68.848,54.621 158.184,55.657 99.606,1.152 191.878,-77.625 191.878,-203.59 0,-127.426 -102.534,-210.91 -196.272,-210.91 -93.743,0 -150.86,62.98 -150.86,62.98 l 0,-147.9335 c 0,0 71.766,-51.2656 156.719,-51.2656 84.949,0 329.553,73.2383 329.553,339.8051 0,266.574 -222.631,348.593 -319.299,348.593 -105.461,0 -169.903,-52.726 -169.903,-52.726 z" /><path
         id="path3379"
         style="fill:#1a68bb;fill-opacity:1;fill-rule:nonzero;stroke:none"
         d="m 1507.65,165.039 c 112.11,0 202.99,90.883 202.99,202.992 0,112.11 -90.88,202.992 -202.99,202.992 -112.11,0 -202.99,-90.882 -202.99,-202.992 0,-112.109 90.88,-202.992 202.99,-202.992 z M 1164.68,370.52 c 0,190.863 154.73,345.593 345.59,345.593 190.87,0 345.6,-154.73 345.6,-345.593 0,-190.868 -154.73,-345.5981 -345.6,-345.5981 -190.86,0 -345.59,154.7301 -345.59,345.5981" /><path
         id="path3381"
         style="fill:none;stroke:#1a68bb;stroke-width:10;stroke-linecap:butt;stroke-linejoin:miter;stroke-miterlimit:4;stroke-dasharray:none;stroke-opacity:1"
         d="m 1507.65,165.039 c 112.11,0 202.99,90.883 202.99,202.992 0,112.11 -90.88,202.992 -202.99,202.992 -112.11,0 -202.99,-90.882 -202.99,-202.992 0,-112.109 90.88,-202.992 202.99,-202.992 z M 1164.68,370.52 c 0,190.863 154.73,345.593 345.59,345.593 190.87,0 345.6,-154.73 345.6,-345.593 0,-190.868 -154.73,-345.5981 -345.6,-345.5981 -190.86,0 -345.59,154.7301 -345.59,345.5981 z" /><path
         id="path3383"
         style="fill:#1a68bb;fill-opacity:1;fill-rule:nonzero;stroke:none"
         d="m 1850.39,491.063 146.46,0 0,-313.434 c 0,0 58.59,-14.649 134.75,-14.649 131.82,0 225.56,61.516 228.49,202.122 3.72,178.652 -117.17,207.984 -193.34,207.984 -76.16,0 -137.68,-35.152 -166.97,-70.305 -29.29,-35.148 -2.93,-8.789 -2.93,-8.789 l 0,172.836 c 0,0 67.38,49.797 169.9,49.797 108.39,0 336.88,-105.453 336.88,-360.312 0,-246.059 -213.84,-319.2974 -281.21,-319.2974 -67.39,0 0,0 0,0 l -374.96,0 2.93,454.0474" /><path
         id="path3385"
         style="fill:none;stroke:#1a68bb;stroke-width:10;stroke-linecap:butt;stroke-linejoin:miter;stroke-miterlimit:4;stroke-dasharray:none;stroke-opacity:1"
         d="m 1850.39,491.063 146.46,0 0,-313.434 c 0,0 58.59,-14.649 134.75,-14.649 131.82,0 225.56,61.516 228.49,202.122 3.72,178.652 -117.17,207.984 -193.34,207.984 -76.16,0 -137.68,-35.152 -166.97,-70.305 -29.29,-35.148 -2.93,-8.789 -2.93,-8.789 l 0,172.836 c 0,0 67.38,49.797 169.9,49.797 108.39,0 336.88,-105.453 336.88,-360.312 0,-246.059 -213.84,-319.2974 -281.21,-319.2974 -67.39,0 0,0 0,0 l -374.96,0 2.93,454.0474 z" /><path
         id="path3387"
         style="fill:#1a68bb;fill-opacity:1;fill-rule:nonzero;stroke:none"
         d="m 2459.68,514.496 155.27,0 90.81,-181.613 41,84.949 -125.96,275.356 158.18,0 55.66,-111.313 52.74,111.313 158.17,0 -128.88,-272.426 46.87,-96.668 169.89,372.023 166.99,0 L 2966.46,10.6523 2834.64,239.141 2705.76,22.3672 2459.68,514.496" /><path
         id="path3389"
         style="fill:none;stroke:#1a68bb;stroke-width:10;stroke-linecap:butt;stroke-linejoin:miter;stroke-miterlimit:4;stroke-dasharray:none;stroke-opacity:1"
         d="m 2459.68,514.496 155.27,0 90.81,-181.613 41,84.949 -125.96,275.356 158.18,0 55.66,-111.313 52.74,111.313 158.17,0 -128.88,-272.426 46.87,-96.668 169.89,372.023 166.99,0 L 2966.46,10.6523 2834.64,239.141 2705.76,22.3672 2459.68,514.496 Z" /><path
         id="path3391"
         style="fill:#1a68bb;fill-opacity:1;fill-rule:nonzero;stroke:none"
         d="m 3051.42,28.2266 155.25,0 184.55,342.7344 175.77,-339.8047 161.1,0 L 3388.3,704.906 3051.42,28.2266" /><path
         id="path3393"
         style="fill:none;stroke:#1a68bb;stroke-width:10;stroke-linecap:butt;stroke-linejoin:miter;stroke-miterlimit:4;stroke-dasharray:none;stroke-opacity:1"
         d="m 3051.42,28.2266 155.25,0 184.55,342.7344 175.77,-339.8047 161.1,0 L 3388.3,704.906 3051.42,28.2266 Z" /><path
         id="path3395"
         style="fill:#1a68bb;fill-opacity:1;fill-rule:nonzero;stroke:none"
         d="m 3487.89,690.266 158.19,0 196.26,-395.465 -161.11,0 -193.34,395.465" /><path
         id="path3397"
         style="fill:none;stroke:#1a68bb;stroke-width:10;stroke-linecap:butt;stroke-linejoin:miter;stroke-miterlimit:4;stroke-dasharray:none;stroke-opacity:1"
         d="m 3487.89,690.266 158.19,0 196.26,-395.465 -161.11,0 -193.34,395.465 z" /><path
         id="path3399"
         style="fill:#1a68bb;fill-opacity:1;fill-rule:nonzero;stroke:none"
         d="m 3757.39,195.199 254.85,495.067 155.26,0 -257.79,-521.426 0,-140.6134 -152.32,0 0,166.9724" /><path
         id="path3401"
         style="fill:none;stroke:#1a68bb;stroke-width:10;stroke-linecap:butt;stroke-linejoin:miter;stroke-miterlimit:4;stroke-dasharray:none;stroke-opacity:1"
         d="m 3757.39,195.199 254.85,495.067 155.26,0 -257.79,-521.426 0,-140.6134 -152.32,0 0,166.9724 z" /><g
         transform="scale(10,10)"
         id="g3403"><text
           id="text3405"
           style="font-variant:normal;font-weight:bold;font-size:18px;font-family:Univers;-inkscape-font-specification:Univers-Bold;writing-mode:lr-tb;fill:#1a68bb;fill-opacity:1;fill-rule:nonzero;stroke:none"
           transform="matrix(1,0,0,-1,421.871,56.4043)"><tspan
             id="tspan3407"
             y="0"
             x="0 14.399414">® </tspan></text>
</g></g></g></svg>